<svg width="600" height="242" viewBox="0 0 600 242" fill="none" xmlns="http://www.w3.org/2000/svg">
<g clip-path="url(#clip0_1_116)">
<path d="M288.113 70.7367C294.733 70.7367 299.631 72.7993 304.133 76.9244C304.728 77.456 304.728 78.2535 304.199 78.7876L299.036 84.1754C298.573 84.6406 297.844 84.6406 297.381 84.1754C294.932 81.9799 291.687 80.7837 288.443 80.7837C280.962 80.7837 275.468 87.0354 275.468 94.4882C275.468 101.872 281.028 107.993 288.509 107.993C291.621 107.993 294.998 106.863 297.381 104.8C297.844 104.402 298.705 104.402 299.102 104.867L304.265 110.388C304.728 110.855 304.662 111.719 304.199 112.185C299.698 116.576 294.004 118.638 288.113 118.638C274.872 118.638 264.214 108.06 264.214 94.754C264.214 81.4483 274.872 70.7367 288.113 70.7367Z" fill="white"/>
<path d="M311.54 72.6663C311.54 72.0002 312.136 71.4013 312.798 71.4013H320.676C321.404 71.4013 321.933 72.0002 321.933 72.6663V89.4319H340.866V72.6663C340.866 72.0002 341.398 71.4013 342.125 71.4013H350.004C350.665 71.4013 351.26 72.0002 351.26 72.6663V116.709C351.26 117.375 350.665 117.973 350.004 117.973H342.125C341.398 117.973 340.866 117.375 340.866 116.709V99.2114H321.933V116.709C321.933 117.375 321.404 117.973 320.676 117.973H312.798C312.136 117.973 311.54 117.375 311.54 116.709V72.6663Z" fill="white"/>
<path d="M382.233 91.2935C384.947 91.2935 387.265 88.7657 387.265 85.9721C387.265 83.1785 384.947 80.9166 382.233 80.9166H372.435V91.2935H382.233ZM362.043 72.6663C362.043 72.0002 362.572 71.4013 363.3 71.4013H383.095C391.039 71.4013 397.525 77.8548 397.525 85.7728C397.525 91.8932 393.486 96.8166 387.728 99.145L396.797 116.043C397.26 116.91 396.797 117.973 395.672 117.973H386.868C386.337 117.973 385.94 117.641 385.808 117.375L377.004 99.7431H372.435V116.709C372.435 117.375 371.84 117.973 371.178 117.973H363.3C362.572 117.973 362.043 117.375 362.043 116.709V72.6663Z" fill="white"/>
<path d="M405.727 72.6663C405.727 72.0002 406.322 71.4013 406.986 71.4013H414.928C415.592 71.4013 416.187 72.0002 416.187 72.6663V116.709C416.187 117.375 415.592 117.973 414.928 117.973H406.986C406.322 117.973 405.727 117.375 405.727 116.709V72.6663Z" fill="white"/>
<path d="M424.326 111.652L427.437 106.13C427.966 105.265 429.224 105.398 429.687 105.731C429.951 105.864 434.718 109.391 439.088 109.391C441.735 109.391 443.655 107.728 443.655 105.398C443.655 102.605 441.338 100.476 436.837 98.679C431.144 96.4171 423.994 91.9597 423.994 83.976C423.994 77.3896 429.091 70.7367 439.286 70.7367C446.17 70.7367 451.468 74.2621 453.454 75.7258C454.247 76.1918 454.115 77.3896 453.851 77.8548L450.473 82.9784C450.01 83.7102 448.82 84.3083 448.223 83.8431C447.627 83.5108 442.794 79.8509 438.757 79.8509C436.374 79.8509 434.586 81.4483 434.586 83.245C434.586 85.7063 436.572 87.5687 441.801 89.6977C446.965 91.7603 455.173 95.819 455.173 104.867C455.173 111.719 449.283 118.638 439.551 118.638C430.945 118.638 426.179 115.047 424.656 113.516C423.994 112.851 423.796 112.584 424.326 111.652Z" fill="white"/>
<path d="M468.607 81.1824H459.139C458.412 81.1824 457.883 80.5827 457.883 79.9173V72.6663C457.883 72.0002 458.412 71.4013 459.139 71.4013H488.533C489.262 71.4013 489.791 72.0002 489.791 72.6663V79.9173C489.791 80.5827 489.262 81.1824 488.533 81.1824H479.066V116.709C479.066 117.375 478.471 117.973 477.81 117.973H469.865C469.204 117.973 468.607 117.375 468.607 116.709V81.1824Z" fill="white"/>
<path d="M495.743 72.6663C495.743 72.0002 496.338 71.4013 497.001 71.4013H504.944C505.607 71.4013 506.203 72.0002 506.203 72.6663V116.709C506.203 117.375 505.607 117.973 504.944 117.973H497.001C496.338 117.973 495.743 117.375 495.743 116.709V72.6663Z" fill="white"/>
<path d="M538.24 102.005L533.209 91.0276H533.143L528.177 102.005H538.24ZM511.031 116.243L531.75 71.4677C531.95 71.069 532.414 70.7367 532.877 70.7367H533.54C534.003 70.7367 534.466 71.069 534.665 71.4677L555.385 116.243C555.782 117.109 555.253 117.973 554.261 117.973H546.912C545.72 117.973 545.19 117.574 544.593 116.309L542.212 111.054H524.205L521.822 116.376C521.491 117.176 520.763 117.973 519.439 117.973H512.158C511.164 117.973 510.633 117.109 511.031 116.243Z" fill="white"/>
<path d="M560.143 71.9337C560.143 71.2683 560.741 70.7367 561.402 70.7367H563.056L589.471 96.2842H589.537V72.6664C589.537 72.0002 590.067 71.4013 590.795 71.4013H598.74C599.401 71.4013 599.996 72.0002 599.996 72.6664V117.441C599.996 118.106 599.401 118.638 598.74 118.638H597.679C597.481 118.638 596.95 118.438 596.818 118.305L570.669 91.8932H570.603V116.709C570.603 117.375 570.074 117.973 569.347 117.973H561.468C560.807 117.973 560.209 117.375 560.209 116.709L560.143 71.9337Z" fill="white"/>
<path d="M267.59 134.069C267.59 133.403 268.186 132.805 268.848 132.805H276.725C277.454 132.805 277.983 133.403 277.983 134.069V150.836H296.915V134.069C296.915 133.403 297.447 132.805 298.174 132.805H306.053C306.714 132.805 307.311 133.403 307.311 134.069V178.113C307.311 178.779 306.714 179.378 306.053 179.378H298.174C297.447 179.378 296.915 178.779 296.915 178.113V160.615H277.983V178.113C277.983 178.779 277.454 179.378 276.725 179.378H268.848C268.186 179.378 267.59 178.779 267.59 178.113V134.069Z" fill="white"/>
<path d="M318.093 134.069C318.093 133.403 318.622 132.805 319.351 132.805H346.757C347.486 132.805 348.016 133.403 348.016 134.069V141.321C348.016 141.986 347.486 142.585 346.757 142.585H328.419V150.836H343.515C344.176 150.836 344.771 151.434 344.771 152.099V159.352C344.771 160.083 344.176 160.615 343.515 160.615H328.419V169.596H346.757C347.486 169.596 348.016 170.197 348.016 170.861V178.113C348.016 178.779 347.486 179.378 346.757 179.378H319.351C318.622 179.378 318.093 178.779 318.093 178.113V134.069Z" fill="white"/>
<path d="M376.409 152.697C379.122 152.697 381.441 150.169 381.441 147.375C381.441 144.581 379.122 142.319 376.409 142.319H366.61V152.697H376.409ZM356.219 134.069C356.219 133.403 356.748 132.805 357.475 132.805H377.27C385.215 132.805 391.701 139.258 391.701 147.176C391.701 153.297 387.662 158.22 381.904 160.549L390.972 177.448C391.435 178.314 390.972 179.378 389.848 179.378H381.044C380.513 179.378 380.116 179.045 379.984 178.779L371.179 161.147H366.61V178.113C366.61 178.779 366.015 179.378 365.354 179.378H357.475C356.748 179.378 356.219 178.779 356.219 178.113V134.069Z" fill="white"/>
<path d="M399.903 134.069C399.903 133.403 400.499 132.805 401.162 132.805H409.105C409.767 132.805 410.363 133.403 410.363 134.069V178.113C410.363 178.779 409.767 179.378 409.105 179.378H401.162C400.499 179.378 399.903 178.779 399.903 178.113V134.069Z" fill="white"/>
<path d="M427.107 142.585H417.641C416.911 142.585 416.382 141.986 416.382 141.321V134.069C416.382 133.403 416.911 132.805 417.641 132.805H447.034C447.761 132.805 448.29 133.403 448.29 134.069V141.321C448.29 141.986 447.761 142.585 447.034 142.585H437.567V178.113C437.567 178.779 436.969 179.378 436.308 179.378H428.363C427.702 179.378 427.107 178.779 427.107 178.113V142.585Z" fill="white"/>
<path d="M473.176 163.409L468.145 152.431H468.079L463.115 163.409H473.176ZM445.969 177.647L466.69 132.871C466.889 132.473 467.351 132.14 467.814 132.14H468.476C468.939 132.14 469.404 132.473 469.602 132.871L490.323 177.647C490.72 178.513 490.191 179.378 489.197 179.378H481.85C480.657 179.378 480.128 178.979 479.533 177.714L477.148 172.459H459.142L456.759 177.78C456.429 178.579 455.7 179.378 454.376 179.378H447.094C446.101 179.378 445.572 178.513 445.969 177.647Z" fill="white"/>
<path d="M515.207 132.207C520.766 132.207 526.859 134.535 531.36 138.46C531.955 138.926 532.021 139.724 531.492 140.257L526.262 145.845C525.733 146.31 525.003 146.31 524.474 145.911C521.959 143.583 519.047 142.718 515.802 142.718C508.586 142.718 502.761 148.839 502.761 156.157C502.761 163.409 508.653 169.397 515.868 169.397C517.788 169.397 519.774 169.131 521.761 168.334V164.474H517.59C516.861 164.474 516.331 163.943 516.331 163.277V156.689C516.331 155.958 516.861 155.426 517.59 155.426H530.896C531.558 155.426 532.088 156.024 532.088 156.689L532.154 174.588C532.154 174.92 531.889 175.452 531.625 175.651C531.625 175.651 524.805 179.976 515.207 179.976C502.033 179.976 491.44 169.463 491.44 156.157C491.44 142.851 502.033 132.207 515.207 132.207Z" fill="white"/>
<path d="M540.555 134.069C540.555 133.403 541.085 132.805 541.812 132.805H569.219C569.948 132.805 570.477 133.403 570.477 134.069V141.321C570.477 141.986 569.948 142.585 569.219 142.585H550.881V150.836H565.976C566.637 150.836 567.232 151.434 567.232 152.099V159.352C567.232 160.083 566.637 160.615 565.976 160.615H550.881V169.596H569.219C569.948 169.596 570.477 170.197 570.477 170.861V178.113C570.477 178.779 569.948 179.378 569.219 179.378H541.812C541.085 179.378 540.555 178.779 540.555 178.113V134.069Z" fill="white"/>
<path d="M268.649 195.474C268.649 194.808 269.179 194.209 269.907 194.209H272.489C273.151 194.209 273.747 194.808 273.747 195.474V236.323H292.812C293.541 236.323 294.07 236.922 294.07 237.586V239.516C294.07 240.182 293.541 240.78 292.812 240.78H269.907C269.179 240.78 268.649 240.182 268.649 239.516V195.474Z" fill="white"/>
<path d="M320.213 236.789C330.741 236.789 339.413 228.14 339.413 217.561C339.413 206.983 330.741 198.201 320.213 198.201C309.689 198.201 301.083 206.983 301.083 217.561C301.083 228.14 309.689 236.789 320.213 236.789ZM320.213 193.544C333.453 193.544 344.047 204.256 344.047 217.561C344.047 230.867 333.453 241.446 320.213 241.446C306.974 241.446 296.448 230.867 296.448 217.561C296.448 204.256 306.974 193.544 320.213 193.544Z" fill="white"/>
<path d="M353.57 194.741C353.57 194.076 354.168 193.544 354.829 193.544H356.483L386.339 230.934C386.405 230.934 386.405 230.934 386.471 230.934V195.474C386.471 194.808 387.002 194.209 387.732 194.209H390.047C390.708 194.209 391.305 194.808 391.305 195.474V240.249C391.305 240.913 390.708 241.446 390.047 241.446H388.856L358.471 203.324H358.404V239.516C358.404 240.182 357.874 240.78 357.146 240.78H354.829C354.168 240.78 353.57 240.182 353.57 239.516V194.741Z" fill="white"/>
<path d="M419.167 236.19C430.024 236.19 437.902 228.406 437.902 217.428C437.902 206.518 430.024 198.733 419.167 198.733H409.237V236.19H419.167ZM404.206 195.474C404.206 194.808 404.736 194.209 405.397 194.209H420.226C433.003 194.209 443.462 204.654 443.462 217.428C443.462 230.336 433.003 240.78 420.226 240.78H405.397C404.736 240.78 404.206 240.182 404.206 239.516V195.474Z" fill="white"/>
<path d="M473.444 236.789C483.969 236.789 492.641 228.14 492.641 217.561C492.641 206.983 483.969 198.201 473.444 198.201C462.918 198.201 454.312 206.983 454.312 217.561C454.312 228.14 462.918 236.789 473.444 236.789ZM473.444 193.544C486.684 193.544 497.275 204.256 497.275 217.561C497.275 230.867 486.684 241.446 473.444 241.446C460.204 241.446 449.677 230.867 449.677 217.561C449.677 204.256 460.204 193.544 473.444 193.544Z" fill="white"/>
<path d="M506.733 194.741C506.733 194.076 507.328 193.544 507.992 193.544H509.647L539.503 230.934C539.569 230.934 539.569 230.934 539.635 230.934V195.474C539.635 194.808 540.164 194.209 540.892 194.209H543.21C543.872 194.209 544.467 194.808 544.467 195.474V240.249C544.467 240.913 543.872 241.446 543.21 241.446H542.018L511.631 203.324H511.565V239.516C511.565 240.182 511.036 240.78 510.309 240.78H507.992C507.328 240.78 506.733 240.182 506.733 239.516V194.741Z" fill="white"/>
<path d="M0.000335693 240.78H16.814V97.1578H0.000335693V240.78Z" fill="#B02834"/>
<path d="M25.2198 240.78H42.0334V97.1578H25.2198V240.78Z" fill="#B02834"/>
<path d="M193.346 240.78H210.16V97.1578H193.346V240.78Z" fill="#B02834"/>
<path d="M218.566 240.78H235.379V97.1578H218.566V240.78Z" fill="#B02834"/>
<path d="M0.000335693 88.7098H235.378V71.8122H0.000335693V88.7098Z" fill="#B02834"/>
<path d="M117.689 0.00249257L0 63.3658H235.378L117.689 0.00249257ZM117.689 50.6922C108.404 50.6922 100.877 43.1275 100.877 33.7961C100.877 24.4648 108.404 16.8985 117.689 16.8985C126.974 16.8985 134.501 24.4648 134.501 33.7961C134.501 43.1275 126.974 50.6922 117.689 50.6922Z" fill="#B02834"/>
<path d="M117.689 126.727C103.762 126.727 92.4692 138.077 92.4692 152.073V240.78H142.908V152.073C142.908 138.077 131.616 126.727 117.689 126.727ZM128.196 153.782H119.79V174.902H115.587V153.782H107.181V149.558H115.587V141.108H119.79V149.558H128.196V153.782Z" fill="#B02834"/>
<path d="M151.314 240.78H172.329V156.297H151.314V240.78Z" fill="#B02834"/>
<path d="M63.0485 240.78H84.0632V156.297H63.0485V240.78Z" fill="#B02834"/>
<path d="M117.689 97.1586C88.9259 97.1586 65.3531 119.494 63.2064 147.848H84.3358C86.4115 131.203 100.572 118.28 117.689 118.28C134.806 118.28 148.966 131.203 151.042 147.848H172.171C170.025 119.494 146.452 97.1586 117.689 97.1586Z" fill="#B02834"/>
</g>
<defs>
<clipPath id="clip0_1_116">
<rect width="600" height="241.446" fill="white"/>
</clipPath>
</defs>
</svg>
